<svg width="16" height="16" viewBox="0 0 16 16" fill="none" xmlns="http://www.w3.org/2000/svg">
<g clip-path="url(#clip0_26676_396)">
<path d="M8.00008 2.66666C4.66675 2.66666 1.82008 4.73999 0.666748 7.66666C1.82008 10.5933 4.66675 12.6667 8.00008 12.6667C11.3334 12.6667 14.1801 10.5933 15.3334 7.66666C14.1801 4.73999 11.3334 2.66666 8.00008 2.66666ZM8.00008 11C6.16008 11 4.66675 9.50666 4.66675 7.66666C4.66675 5.82666 6.16008 4.33332 8.00008 4.33332C9.84008 4.33332 11.3334 5.82666 11.3334 7.66666C11.3334 9.50666 9.84008 11 8.00008 11ZM8.00008 5.66666C6.89341 5.66666 6.00008 6.55999 6.00008 7.66666C6.00008 8.77332 6.89341 9.66666 8.00008 9.66666C9.10675 9.66666 10.0001 8.77332 10.0001 7.66666C10.0001 6.55999 9.10675 5.66666 8.00008 5.66666Z" fill="#6D747A"/>
</g>
<defs>
<clipPath id="clip0_26676_396">
<rect width="16" height="16" fill="white"/>
</clipPath>
</defs>
</svg>
